<?xml version="1.0" encoding="utf-8"?>
<svg xmlns="http://www.w3.org/2000/svg" fill="none" version="1.1" y="-162.992pt" stroke-miterlimit="10.000000" x="-162.992pt" width="977.953pt" viewBox="-162.992 -162.992 977.953 467.717" stroke-width="0.566929" height="467.717pt">
 <g stroke-width="42.519685">
  <path stroke="#fff" d="M141.732 -0A141.732 141.732 0 1 0 128.453 59.8987"/>
 </g>
 <g stroke-linecap="round" stroke-width="28.346457">
  <path stroke="#0085c7" d="M141.732 -0A141.732 141.732 0 1 0 128.453 59.8987"/>
 </g>
 <g stroke-width="42.519685">
  <path stroke="#fff" d="M304.724 141.732A141.732 141.732 0 0 0 21.2598 141.732A141.732 141.732 0 0 0 304.724 141.732"/>
 </g>
 <g stroke-linecap="round" stroke-width="28.346457">
  <path stroke="#f4c300" d="M304.724 141.732A141.732 141.732 0 0 0 21.2598 141.732A141.732 141.732 0 0 0 304.724 141.732"/>
 </g>
 <g stroke-width="42.519685">
  <path stroke="#fff" d="M467.717 -0A141.732 141.732 0 0 0 184.252 -1.73572e-14A141.732 141.732 0 0 0 467.717 3.47144e-14"/>
 </g>
 <g stroke-linecap="round" stroke-width="28.346457">
  <path stroke="#000" d="M467.717 -0A141.732 141.732 0 0 0 184.252 -1.73572e-14A141.732 141.732 0 0 0 467.717 3.47144e-14"/>
 </g>
 <g stroke-width="42.519685">
  <path stroke="#fff" d="M630.709 141.732A141.732 141.732 0 0 0 347.244 141.732A141.732 141.732 0 0 0 630.709 141.732"/>
 </g>
 <g stroke-linecap="round" stroke-width="28.346457">
  <path stroke="#009f3d" d="M630.709 141.732A141.732 141.732 0 0 0 347.244 141.732A141.732 141.732 0 0 0 630.709 141.732"/>
 </g>
 <g stroke-width="42.519685">
  <path stroke="#fff" d="M793.701 -0A141.732 141.732 0 0 0 510.236 -1.73572e-14A141.732 141.732 0 0 0 793.701 3.47144e-14"/>
 </g>
 <g stroke-linecap="round" stroke-width="28.346457">
  <path stroke="#df0024" d="M793.701 -0A141.732 141.732 0 0 0 510.236 -1.73572e-14A141.732 141.732 0 0 0 793.701 3.47144e-14"/>
 </g>
 <g stroke-width="42.519685">
  <path stroke="#fff" d="M222.891 13.2792A141.732 141.732 0 0 0 162.992 -0"/>
 </g>
 <g stroke-linecap="round" stroke-width="28.346457">
  <path stroke="#f4c300" d="M222.891 13.2792A141.732 141.732 0 0 0 162.992 -0"/>
 </g>
 <g stroke-width="42.519685">
  <path stroke="#fff" d="M128.453 59.8987A141.732 141.732 0 0 0 139.579 -24.6116"/>
 </g>
 <g stroke-linecap="round" stroke-width="28.346457">
  <path stroke="#0085c7" d="M128.453 59.8987A141.732 141.732 0 0 0 139.579 -24.6116"/>
 </g>
 <g stroke-width="42.519685">
  <path stroke="#fff" d="M548.875 13.2792A141.732 141.732 0 0 0 488.976 -0"/>
 </g>
 <g stroke-linecap="round" stroke-width="28.346457">
  <path stroke="#009f3d" d="M548.875 13.2792A141.732 141.732 0 0 0 488.976 -0"/>
 </g>
 <g stroke-width="42.519685">
  <path stroke="#fff" d="M454.437 59.8987A141.732 141.732 0 0 0 465.563 -24.6116"/>
 </g>
 <g stroke-linecap="round" stroke-width="28.346457">
  <path stroke="#000" d="M454.437 59.8987A141.732 141.732 0 0 0 465.563 -24.6116"/>
 </g>
</svg>
